<svg width="600" height="600" viewBox="0 0 300 300" xmlns="http://www.w3.org/2000/svg">
  <defs>
    <linearGradient id="bg" x1="0%" y1="0%" x2="100%" y2="100%">
      <stop offset="0%" stop-color="#4F46E5"/>
      <stop offset="100%" stop-color="#7C3AED"/>
    </linearGradient>
  </defs>
  <rect width="300" height="300" rx="68" fill="url(#bg)"/>
  <!-- platypus: broad paddle tail (left), round body, raised head, flat duck bill (right) -->
  <path fill="#ffffff" d="
    M 268 155
    C 269 147 263 142 251 141
    L 210 141
    C 197 140 189 132 181 119
    C 170 101 148 94 125 97
    C 101 100 83 112 73 130
    C 67 140 63 147 60 154
    C 50 147 34 150 26 163
    C 18 176 20 194 33 204
    C 45 213 62 210 72 198
    C 86 206 106 211 130 211
    C 168 212 202 203 226 184
    C 243 171 256 163 264 159
    C 268 157 268 157 268 155 Z
  "/>
  <!-- eye -->
  <circle cx="166" cy="121" r="9" fill="#4F46E5"/>
</svg>
